<svg width="57" height="83" viewBox="0 0 57 83" fill="none" xmlns="http://www.w3.org/2000/svg">
<path d="M52.3189 14.8285C45.5358 -2.97387 4.27586 -4.23435 3.83565 14.8285C3.82542 15.2718 3.83565 15.964 3.83565 15.964C3.88096 21.9871 2.2015 26.2868 5.52693 31.2933C11.5251 40.3235 34.493 20.5133 33.1511 31.2933C32.1482 39.3496 19.5045 35.7928 16.2383 43.2161C14.7864 46.516 8.82287 52.3001 14.5471 52.3001H29.2048C34.929 52.3001 40.5197 60.8199 37.0974 65.9261C34.5582 69.7148 30.2536 69.7534 25.8223 68.7649C21.8239 67.8729 21.3251 63.5736 17.3659 62.5196C10.9626 60.8151 3.86409 62.5038 1.58062 68.7649C-1.34935 76.7987 7.16842 83.1535 19.0571 81.8232L49.5001 78.4167C61.3888 77.0864 54.2341 62.5704 49.5001 54.5711C45.054 47.0582 30.451 51.9613 30.3323 43.2161C30.2044 33.784 47.8505 41.8546 52.3189 33.5643C55.7849 27.1338 54.9217 21.6596 52.3189 14.8285Z" stroke="#C62369"/>
</svg>
